<svg width="35" height="35" viewBox="0 0 35 35" fill="none" xmlns="http://www.w3.org/2000/svg">
<rect x="0.5" y="0.5" width="34" height="34" rx="9.5" fill="#292F85" stroke="#E5E5E5"/>
<path d="M12.126 15.1495C13.0879 15.1495 13.8676 14.354 13.8676 13.3728C13.8676 12.3917 13.0879 11.5962 12.126 11.5962C11.1642 11.5962 10.3844 12.3917 10.3844 13.3728C10.3844 14.354 11.1642 15.1495 12.126 15.1495Z" fill="#E5E5E5"/>
<path d="M21.1325 13.3737C21.1325 14.3536 21.9135 15.1486 22.8741 15.1486C23.8347 15.1486 24.614 14.3528 24.614 13.3737C24.614 12.3903 23.8347 11.5962 22.8741 11.5962C21.9135 11.5962 21.1325 12.3912 21.1325 13.3737Z" fill="#E5E5E5"/>
<path d="M17.5001 17.5975C18.2845 17.5975 18.9204 16.9488 18.9204 16.1487C18.9204 15.3485 18.2845 14.6999 17.5001 14.6999C16.7157 14.6999 16.0798 15.3485 16.0798 16.1487C16.0798 16.9488 16.7157 17.5975 17.5001 17.5975Z" fill="#E5E5E5"/>
<path d="M20.3153 23.3326V19.8164C20.3153 19.4146 19.6515 18.7109 18.5678 18.7109H16.4323C15.3494 18.7109 14.6848 19.4146 14.6848 19.8164V23.3326C14.6848 23.7671 15.2761 24.1112 15.6767 24.1947V28.0688C15.6767 28.5833 16.0832 28.9997 16.5884 28.9997C17.0919 28.9997 17.5001 28.5833 17.5001 28.0688C17.5001 28.5833 17.9083 28.9997 18.4126 28.9997C18.9169 28.9997 19.3243 28.5833 19.3243 28.0688V24.1947C19.7241 24.1112 20.3153 23.7662 20.3153 23.3326Z" fill="#E5E5E5"/>
<path d="M15.5586 18.3163L14.5187 16.7066C14.307 16.3788 13.4805 16.3323 13.4358 16.3323H10.8179C10.7732 16.3323 9.94673 16.3788 9.7342 16.7066L7.14333 20.7175C6.87935 21.1261 6.99068 21.6725 7.3896 21.9409C7.78852 22.2102 8.32491 22.0975 8.58889 21.6897L9.88938 19.6773V27.8583C9.88938 28.4881 10.3895 29 11.0077 29C11.6251 29 12.126 28.4881 12.126 27.8583C12.126 28.4881 12.627 29 13.2452 29C13.8626 29 14.3635 28.4881 14.3635 27.8583V23.9593C14.2404 23.7794 14.1611 23.5712 14.1611 23.3329V19.8167C14.162 19.2291 14.722 18.5916 15.5586 18.3163Z" fill="#E5E5E5"/>
<path d="M27.8576 20.7175L25.2676 16.7066C25.0534 16.3788 24.2286 16.3323 24.1839 16.3323H21.566C21.5213 16.3323 20.6956 16.3788 20.4823 16.7066L19.4424 18.3163C20.2798 18.5916 20.8398 19.23 20.8398 19.8167V23.3329C20.8398 23.942 20.3313 24.3645 19.8489 24.5796V24.7404H20.6374V27.8583C20.6374 28.4881 21.1384 29 21.7558 29C22.3731 29 22.8749 28.4881 22.8749 27.8583C22.8749 28.4881 23.3751 29 23.9941 29C24.6115 29 25.1107 28.4881 25.1107 27.8583V24.7404H26.3303L25.1107 19.6773L26.4112 21.6897C26.6752 22.0975 27.2124 22.2093 27.6114 21.9409C28.0094 21.6725 28.1199 21.1253 27.8576 20.7175Z" fill="#E5E5E5"/>
<path d="M17.5001 14.0018C22.8749 12.2054 23.7099 6.63466 21.2076 5.30371C19.0764 4.16978 17.5001 6.5796 17.5001 6.5796C17.5001 6.5796 15.9246 4.16892 13.7926 5.30371C11.2902 6.63552 12.1252 12.2054 17.5001 14.0018Z" fill="#E5E5E5"/>
</svg>
