<svg width="20" height="24" viewBox="0 0 20 24" fill="none" xmlns="http://www.w3.org/2000/svg">
    <path d="M13.3254 19.4073C13.2221 19.4646 13.1189 19.5158 13.0156 19.573L11.2938 20.7243V20.224L14.6524 17.9335C17.346 16.0981 18.4908 12.8582 17.7711 9.88357C14.865 10.405 12.4265 12.5719 11.6855 15.5526C11.6582 15.6942 11.6248 15.8359 11.5975 15.9775L11.2938 18.0089V14.3772L12.6057 11.4176C12.6785 11.2519 12.7454 11.0831 12.8182 10.9143C14.1696 7.30373 13.1857 3.34657 10.5437 0.766724C7.6801 3.34958 6.55652 7.51168 8.04451 11.3031L9.25617 14.3682L9.29261 18.0149L8.90998 15.9745C8.88264 15.8329 8.84925 15.6912 8.82192 15.5496C8.08095 12.5719 5.64245 10.402 2.7363 9.88056C2.0166 12.8552 3.16145 16.0981 5.85503 17.9305L9.29261 20.2783V20.7243L7.20029 19.573C7.09705 19.5158 6.99077 19.4646 6.89056 19.4073C4.64338 18.3374 2.03482 18.7292 0.21582 20.2542C1.70989 22.2252 4.32755 23.1836 6.86018 22.4633L9.29564 21.7731V23.3192H11.2999V21.7671L13.3649 22.4633C15.8975 23.1836 18.5121 22.2252 20.0092 20.2542C18.1902 18.7292 15.5817 18.3374 13.3345 19.4073H13.3254Z" fill="#45D688"/>
</svg>
