<svg width="109" height="23" viewBox="0 0 109 23" fill="none" xmlns="http://www.w3.org/2000/svg">
<rect x="0.583158" y="0.583158" width="107.834" height="20.9386" rx="6.41474" fill="#E5E5E5" stroke="#5CC67A" stroke-width="1.16632"/>
<path d="M31.7339 8.38223H33.1918L30.9001 15.0977H29.5744L27.3055 8.38223H28.8044L30.2623 13.4803L31.7339 8.38223ZM40.391 9.57132H36.8374V10.9973H40.0994V12.1636H36.8374V13.8903H40.555V15.0977H35.4661V8.38223H40.391V9.57132ZM44.4513 9.54854V11.3527H46.0413C46.3572 11.3527 46.5941 11.3162 46.752 11.2433C47.0314 11.1158 47.1711 10.8637 47.1711 10.4871C47.1711 10.0801 47.036 9.80671 46.7657 9.667C46.6138 9.58803 46.386 9.54854 46.0823 9.54854H44.4513ZM46.3739 8.38223C46.8446 8.39134 47.2061 8.44905 47.4582 8.55535C47.7133 8.66166 47.9289 8.81808 48.1051 9.02461C48.2509 9.1947 48.3663 9.38301 48.4514 9.58955C48.5364 9.79608 48.5789 10.0315 48.5789 10.2957C48.5789 10.6146 48.4984 10.929 48.3375 11.2388C48.1765 11.5456 47.9107 11.7627 47.5402 11.8903C47.85 12.0148 48.0687 12.1925 48.1962 12.4233C48.3268 12.6511 48.3921 13.0004 48.3921 13.4712V13.9222C48.3921 14.229 48.4043 14.437 48.4286 14.5464C48.465 14.7195 48.5501 14.8471 48.6837 14.9291V15.0977H47.1393C47.0967 14.9488 47.0664 14.8289 47.0481 14.7377C47.0117 14.5494 46.9919 14.3566 46.9889 14.1591L46.9798 13.535C46.9737 13.1067 46.8948 12.8212 46.7429 12.6785C46.5941 12.5357 46.3131 12.4643 45.9 12.4643H44.4513V15.0977H43.0799V8.38223H46.3739ZM52.4751 15.0977H51.081V8.38223H52.4751V15.0977ZM55.1868 8.39134H59.9478V9.57132H56.5809V11.1158H59.5286V12.2821H56.5809V15.0977H55.1868V8.39134ZM63.5752 15.0977H62.1811V8.38223H63.5752V15.0977ZM65.9953 11.7946C65.9953 10.6222 66.3097 9.71863 66.9384 9.08384C67.4851 8.53106 68.1806 8.25466 69.025 8.25466C70.1548 8.25466 70.981 8.62521 71.5034 9.36631C71.7919 9.78242 71.9468 10.2 71.9681 10.6192H70.5649C70.4738 10.2972 70.3568 10.0543 70.2141 9.89024C69.9589 9.59866 69.5808 9.45287 69.0797 9.45287C68.5694 9.45287 68.1669 9.65941 67.8723 10.0725C67.5777 10.4825 67.4304 11.0641 67.4304 11.8174C67.4304 12.5706 67.5853 13.1356 67.8951 13.5122C68.208 13.8858 68.6043 14.0726 69.0842 14.0726C69.5762 14.0726 69.9514 13.9116 70.2095 13.5896C70.3523 13.4165 70.4707 13.1568 70.5649 12.8106H71.9544C71.8329 13.5426 71.5216 14.1379 71.0205 14.5965C70.5224 15.0551 69.883 15.2844 69.1024 15.2844C68.1366 15.2844 67.3773 14.9746 66.8245 14.355C66.2717 13.7324 65.9953 12.8789 65.9953 11.7946ZM76.2653 12.56H77.9692L77.1309 9.91757L76.2653 12.56ZM76.3518 8.38223H77.9373L80.3155 15.0977H78.7938L78.361 13.7172H75.8871L75.4224 15.0977H73.9554L76.3518 8.38223ZM83.9338 9.54854V13.9313H85.2277C85.8898 13.9313 86.3515 13.6048 86.6127 12.9518C86.7554 12.5934 86.8268 12.1667 86.8268 11.6716C86.8268 10.9882 86.719 10.4643 86.5033 10.0998C86.2907 9.7323 85.8655 9.54854 85.2277 9.54854H83.9338ZM85.4646 8.38223C85.8807 8.3883 86.2269 8.4369 86.5033 8.52802C86.9741 8.68292 87.3553 8.96691 87.6469 9.37998C87.8807 9.71408 88.0402 10.0755 88.1252 10.4643C88.2103 10.8531 88.2528 11.2236 88.2528 11.5759C88.2528 12.4689 88.0736 13.2252 87.7152 13.8448C87.2292 14.68 86.479 15.0977 85.4646 15.0977H82.5716V8.38223H85.4646ZM93.6844 14.0954C94.2402 14.0954 94.6806 13.8903 95.0056 13.4803C95.3336 13.0703 95.4976 12.4871 95.4976 11.7308C95.4976 10.9776 95.3336 10.3959 95.0056 9.98591C94.6806 9.57284 94.2402 9.36631 93.6844 9.36631C93.1285 9.36631 92.6851 9.57132 92.354 9.98136C92.023 10.3914 91.8574 10.9745 91.8574 11.7308C91.8574 12.4871 92.023 13.0703 92.354 13.4803C92.6851 13.8903 93.1285 14.0954 93.6844 14.0954ZM96.9008 11.7308C96.9008 12.9366 96.5622 13.86 95.8849 14.5008C95.3776 15.0232 94.6441 15.2844 93.6844 15.2844C92.7246 15.2844 91.9911 15.0232 91.4838 14.5008C90.8035 13.86 90.4633 12.9366 90.4633 11.7308C90.4633 10.5007 90.8035 9.5774 91.4838 8.96083C91.9911 8.43842 92.7246 8.17721 93.6844 8.17721C94.6441 8.17721 95.3776 8.43842 95.8849 8.96083C96.5622 9.5774 96.9008 10.5007 96.9008 11.7308Z" fill="#5CC67A"/>
<path d="M16.2048 15.6492C16.1372 15.6879 16.0696 15.7226 16.002 15.7613L14.8748 16.5395V16.2013L17.0735 14.653C18.8369 13.4123 19.5864 11.2223 19.1152 9.21151C17.2127 9.56396 15.6163 11.0287 15.1312 13.0436C15.1133 13.1393 15.0914 13.2351 15.0736 13.3308L14.8748 14.7039V12.2491L15.7336 10.2485C15.7813 10.1364 15.825 10.0223 15.8727 9.90825C16.7574 7.46763 16.1133 4.79272 14.3837 3.04883C12.509 4.79475 11.7734 7.6082 12.7475 10.1711L13.5408 12.2429L13.5646 14.708L13.3141 13.3288C13.2962 13.233 13.2744 13.1373 13.2565 13.0415C12.7714 11.0287 11.175 9.56192 9.27245 9.20948C8.80128 11.2202 9.55078 13.4123 11.3142 14.651L13.5646 16.238V16.5395L12.1949 15.7613C12.1273 15.7226 12.0577 15.6879 11.9921 15.6492C10.5209 14.926 8.81321 15.1908 7.62238 16.2217C8.60049 17.5541 10.3142 18.2019 11.9722 17.715L13.5666 17.2485V18.2936H14.8787V17.2444L16.2306 17.715C17.8886 18.2019 19.6003 17.5541 20.5804 16.2217C19.3896 15.1908 17.6819 14.926 16.2107 15.6492H16.2048Z" fill="#5CC67A"/>
</svg>
