<svg viewBox="0 0 35 35" fill="none" xmlns="http://www.w3.org/2000/svg">
<rect x="0.5" y="0.5" width="34" height="34" rx="9.5" fill="#292F85" stroke="#E5E5E5"/>
<path d="M12.4478 14.3616C12.4398 14.6956 12.5662 15.0189 12.7985 15.259C13.031 15.4992 13.35 15.636 13.684 15.639C14.0181 15.6421 14.3394 15.5109 14.5762 15.275C14.8127 15.039 14.945 14.718 14.943 14.3839C14.9411 14.0497 14.8051 13.7303 14.5657 13.4973C14.3263 13.2641 14.0034 13.1369 13.6694 13.1438C13.348 13.1504 13.0418 13.2809 12.8143 13.5077C12.5868 13.7344 12.4554 14.0403 12.4478 14.3617L12.4478 14.3616Z" fill="#E5E5E5"/>
<path d="M24.0022 17.4983C25.4224 16.2992 27.03 14.939 25.9619 12.5747C24.0097 8.25408 18.9362 9.30327 17.6358 9.65181C16.7516 7.33233 15.3763 5.15527 13.6489 5.15527C10.8387 5.15527 8.69522 11.6791 8.69522 14.3432C8.65843 15.6922 9.16833 16.9987 10.1095 17.966C11.0504 18.933 12.3425 19.4787 13.6921 19.4787C15.0414 19.4787 16.3336 18.933 17.2747 17.966C18.2156 16.9987 18.7257 15.6922 18.6888 14.3432C18.6068 12.9839 18.3331 11.6428 17.8756 10.3601C19.1121 10.0192 23.5563 9.09356 25.2649 12.8818C26.1041 14.733 24.8902 15.7484 23.5074 16.9287C22.6381 17.678 21.7462 18.4275 21.469 19.4206H19.3745C19.1152 19.4206 18.8664 19.5235 18.683 19.7069C18.4996 19.8903 18.3966 20.1392 18.3966 20.3985V25.2961C18.3965 25.3708 18.4187 25.444 18.4603 25.5059L19.3746 26.8887C19.4444 26.9919 19.561 27.0538 19.6856 27.0536H21.1357V29.5117C21.1357 29.7186 21.3035 29.8863 21.5104 29.8863C21.7173 29.8863 21.8851 29.7186 21.8851 29.5117V27.046H23.3315C23.4561 27.0461 23.5727 26.9845 23.6425 26.8812L24.5717 25.506V25.5059C24.6135 25.444 24.6357 25.3708 24.6355 25.2961V20.3985C24.6355 20.1391 24.5324 19.8903 24.349 19.7069C24.1656 19.5235 23.9169 19.4206 23.6575 19.4206H22.2711C22.5558 18.7311 23.2604 18.1277 24.0023 17.4984L24.0022 17.4983ZM13.6491 17.5207C12.8212 17.5079 12.0322 17.1673 11.4549 16.5738C10.8776 15.9804 10.559 15.1823 10.5691 14.3543C10.5691 12.3347 12.0341 7.10015 13.6567 7.06239C13.9626 7.07341 14.2509 7.20866 14.4547 7.43706C15.6238 8.56124 16.8154 12.4244 16.8154 14.3504C16.8255 15.1936 16.4953 16.0053 15.8993 16.6018C15.3036 17.1984 14.4922 17.5296 13.649 17.5205L13.6491 17.5207ZM22.3724 21.1591C22.3724 20.9522 22.5402 20.7844 22.7471 20.7844C22.9542 20.7844 23.1219 20.9522 23.1219 21.1591V23.9319C23.1219 24.1388 22.9542 24.3066 22.7471 24.3066C22.5402 24.3066 22.3724 24.1388 22.3724 23.9319V21.1591Z" fill="#E5E5E5"/>
</svg>