<svg width="35" height="35" viewBox="0 0 35 35" fill="none" xmlns="http://www.w3.org/2000/svg">
<rect x="0.5" y="0.5" width="34" height="34" rx="9.5" fill="#292F85" stroke="#E5E5E5"/>
<path fill-rule="evenodd" clip-rule="evenodd" d="M9.50493 21.1409L16.9077 8.36607C20.2126 2.66278 28.8667 7.64082 25.5613 13.3452L18.1591 26.1191C14.8541 31.8224 6.20002 26.8442 9.50493 21.1409ZM13.6313 16.1422C13.6311 16.1422 13.6309 16.1419 13.6311 16.1417L14.2622 15.0522C14.4627 14.706 14.9056 14.5872 15.2524 14.7867L20.5739 17.8476C21.0498 18.1214 21.2128 18.7297 20.9375 19.2047C20.6634 19.6776 20.0585 19.8396 19.5848 19.5671L13.6314 16.1422C13.6314 16.1422 13.6313 16.1422 13.6313 16.1422Z" fill="#E5E5E5"/>
</svg>
