<svg width="35" height="35" viewBox="0 0 35 35" fill="none" xmlns="http://www.w3.org/2000/svg">
<rect x="0.5" y="0.5" width="34" height="34" rx="9.5" fill="#292F85" stroke="#E5E5E5"/>
<path d="M26.7 8.05001C26.3001 7.41996 25.7 7 25 7H22.3999V9.10001H25L20.9 16.135C20.6 16.555 20.1999 16.6601 20 16.6601C19.7999 16.6601 19.4 16.6601 19.1 16.135L15.1 9.10001H17.2001V7H15.1C14.4 7 13.7001 7.41996 13.4 8.05001C13 8.78508 13 9.51998 13.4 10.15L17.5 17.1851C17.8999 17.8151 18.3999 18.2351 19.1 18.4451V25.7952L12 25.795V23.59C13.7001 23.17 15 21.49 15 19.495C15 17.1849 13.2001 15.2949 11 15.2949C8.79993 15.2949 7 17.1849 7 19.495C7 21.4899 8.29993 23.0649 10 23.59V28H21.1V18.55C21.7 18.3399 22.3001 17.9199 22.7 17.2899L26.7 10.1498C27.1 9.51979 27.1 8.7849 26.7 8.04982V8.05001ZM9.00004 19.6001C9.00004 18.445 9.9 17.5001 11 17.5001C12.1001 17.5001 13 18.445 13 19.6001C13 20.7551 12.1001 21.7001 11 21.7001C9.9 21.7001 9.00004 20.7551 9.00004 19.6001Z" fill="#F5F5F5"/>
</svg>
