<svg width="34" height="35" viewBox="0 0 34 35" fill="none" xmlns="http://www.w3.org/2000/svg">
<rect x="0.5" y="1.44629" width="33" height="33" rx="9.5" fill="#292F85" stroke="#E5E5E5"/>
<path d="M9.85587 13.8896H19.3527C19.3264 13.6937 19.3131 13.4962 19.3135 13.2984C19.3131 13.0148 19.3394 12.7316 19.3919 12.453C18.6921 12.462 18.0139 12.2097 17.49 11.7454C17.3783 11.6435 17.3172 11.4975 17.3229 11.3464C17.3288 11.1954 17.4011 11.0544 17.5204 10.9615L17.5217 10.9606C17.72 10.8063 18.0001 10.8154 18.1882 10.9821C18.6195 11.3593 19.206 11.506 19.7639 11.3759C19.9756 10.9646 20.2626 10.5967 20.6103 10.2914C20.8257 10.1063 21.1502 10.1299 21.3368 10.3441C21.5232 10.5584 21.5017 10.883 21.2884 11.0708C20.2073 12.026 20.3162 13.385 20.4029 13.8896H23.6089C24.1345 13.8968 24.6435 13.7052 25.034 13.3534C25.4245 13.0017 25.6679 12.5153 25.7154 11.992C25.7548 11.4287 25.559 10.8744 25.1747 10.4608C24.7905 10.0473 24.252 9.81116 23.6875 9.80895C23.5246 9.82606 23.3632 9.76515 23.2524 9.64443C23.1417 9.5239 23.0946 9.35791 23.1253 9.19708C23.1419 9.10966 23.1536 9.02133 23.1604 8.93245C23.193 8.5046 23.0879 8.07751 22.8607 7.7135C22.6336 7.3495 22.2961 7.06758 21.8973 6.90877C21.3342 6.67985 20.6982 6.71298 20.162 6.99931C19.6256 7.28565 19.2443 7.79556 19.1212 8.39088C19.0709 8.62937 18.8604 8.80014 18.6168 8.80014C18.457 8.80824 18.3032 8.73904 18.2033 8.6141C18.1033 8.48915 18.0695 8.32389 18.1124 8.16968C18.2106 7.70319 18.416 7.26594 18.7119 6.89222C18.8025 6.7772 18.8238 6.62226 18.7677 6.487C18.6103 6.1173 18.3481 5.80151 18.0136 5.57906C17.6788 5.35639 17.2863 5.2366 16.8844 5.23439C16.4764 5.23292 16.0773 5.35437 15.7391 5.58292C15.401 5.81148 15.1395 6.13665 14.989 6.51611C14.9257 6.67401 14.789 6.79067 14.623 6.82821C14.457 6.86465 14.2836 6.81846 14.1579 6.70418C13.893 6.46054 13.5685 6.29087 13.2172 6.21246C12.8659 6.13406 12.5003 6.14971 12.1569 6.25773C11.5014 6.46088 10.9944 6.98349 10.8112 7.64468C10.6882 8.07878 10.7121 8.5414 10.8792 8.96044C11.0463 9.37948 11.3472 9.73167 11.7351 9.96208C11.9458 10.0868 12.0406 10.3419 11.9626 10.5739V10.576C11.9136 10.7212 11.8025 10.8371 11.6593 10.8919C11.5161 10.9466 11.3559 10.9346 11.2224 10.8592C10.8542 10.6437 10.5353 10.3533 10.2861 10.0068C10.21 9.89489 10.0878 9.82312 9.95306 9.81116C9.92012 9.80914 9.88902 9.80914 9.85608 9.80914V9.80895C9.12716 9.80895 8.45363 10.198 8.0891 10.8292C7.72474 11.4603 7.72474 12.2382 8.0891 12.8694C8.45365 13.5008 9.12716 13.8896 9.85608 13.8896L9.85587 13.8896Z" fill="#F5F5F5"/>
<path d="M26.6513 19.7416C26.4883 19.5504 26.334 19.3699 26.1951 19.1909C25.989 18.9605 25.9172 18.6393 26.0058 18.3431C26.1804 17.7912 26.2538 17.2121 26.2224 16.6341C26.2097 16.4226 26.1872 16.2003 26.1555 15.974C26.1268 15.7688 26.0249 15.5809 25.8687 15.4451C25.7124 15.3091 25.5122 15.2344 25.3052 15.2344H8.04852C7.84296 15.2344 7.64404 15.3082 7.48815 15.4423C7.33228 15.5767 7.22978 15.7623 7.19942 15.9657C7.10392 16.5816 7.06729 17.2052 7.08974 17.8279C7.07079 18.2707 7.14973 20.0202 9.1896 22.7024C10.9652 25.0389 9.16237 29.5747 9.14415 29.6199C9.03005 29.9039 9.07569 30.227 9.26395 30.4683C9.4522 30.7095 9.75455 30.8323 10.0576 30.7907C10.3607 30.7491 10.6189 30.5492 10.735 30.2662C10.8256 30.0437 12.9251 24.7798 10.5567 21.6631C8.83242 19.3957 8.80335 18.045 8.805 17.9124V17.9125C8.81181 17.8645 8.81236 17.8159 8.80629 17.7679C8.79377 17.4957 8.79782 17.2232 8.81843 16.9516H24.513C24.5049 17.2534 24.4546 17.5528 24.3635 17.8408C24.1101 18.6715 24.2886 19.5739 24.8396 20.2452C25.0022 20.4546 25.1765 20.6589 25.345 20.8563C25.6065 21.1627 26.0287 21.6572 26.1177 21.9045L25.1993 22.4321C25.032 22.5282 24.9021 22.6778 24.8301 22.8568C24.7584 23.0357 24.7488 23.2337 24.8033 23.4188C24.8585 23.6067 24.9669 23.9624 25.0861 24.2825C25.0661 24.2963 25.0464 24.3091 25.0278 24.3206V24.3207C24.8349 24.4374 24.6958 24.6253 24.6402 24.8439C24.5848 25.0623 24.6176 25.2938 24.7313 25.4885C24.442 25.7498 24.242 26.0954 24.1596 26.4766C24.0771 26.8577 24.1165 27.2549 24.2722 27.6125C24.3149 27.7526 24.2838 27.9046 24.1892 28.0164C24.0924 28.1372 23.936 28.1931 23.7845 28.1614C23.0762 28.0584 19.976 26.9813 18.1879 26.3266C18.1557 26.3146 18.1228 26.3049 18.0893 26.2971C18.0781 26.2944 16.9631 25.8669 16.9631 23.2218H16.9633C16.9627 22.9154 16.7989 22.6323 16.5334 22.4792C16.268 22.3261 15.941 22.3261 15.6757 22.4792C15.4101 22.6323 15.2463 22.9154 15.246 23.2218C15.246 26.9444 17.1618 27.7953 17.6075 27.9426C17.7544 27.9964 18.1832 28.1526 18.7499 28.3541L18.7457 29.9406H18.7455C18.7448 30.1684 18.8348 30.387 18.9954 30.5484C19.1559 30.7099 19.3741 30.801 19.6018 30.8016H19.6042C19.8314 30.8016 20.0495 30.7114 20.2105 30.5509C20.3713 30.3903 20.4621 30.1726 20.4628 29.9453L20.4656 28.9512C21.7095 29.3732 22.9979 29.7821 23.5367 29.8605H23.5365C24.2864 29.9753 25.0411 29.6859 25.5217 29.0992C26.0024 28.5126 26.1376 27.7156 25.8776 27.003C25.8106 26.8273 25.802 26.8048 26.0771 26.5864V26.5866C26.2587 26.4401 26.3953 26.2452 26.4707 26.0246C26.5462 25.8037 26.5578 25.5662 26.5039 25.3393C27.1468 24.688 26.9004 24.1059 26.792 23.9207C26.7401 23.8082 26.6949 23.693 26.6564 23.5753L27.0936 23.3242C27.133 23.3014 27.1707 23.2757 27.2063 23.247C27.5671 22.9731 27.7982 22.5618 27.8443 22.1112C27.9249 21.2336 27.2775 20.4751 26.6511 19.7414L26.6513 19.7416Z" fill="#F5F5F5"/>
</svg>
