<svg width="35" height="35" viewBox="0 0 35 35" fill="none" xmlns="http://www.w3.org/2000/svg">
<rect x="0.5" y="0.5" width="34" height="34" rx="9.5" fill="#292F85" stroke="#E5E5E5"/>
<path d="M21.5201 12.6467C21.6339 12.7047 21.766 12.7157 21.8878 12.6775C21.946 12.6568 23.351 12.194 23.9953 10.999C24.6398 9.80381 24.2365 8.38515 24.2213 8.32525H24.2216C24.1864 8.20372 24.1028 8.10202 23.9903 8.0432C23.8776 7.982 23.7445 7.97016 23.6229 8.01066C23.5605 8.02833 22.1555 8.49094 21.5149 9.68918C21.3351 10.0326 21.2213 10.406 21.179 10.7909C21.1199 11.3162 21.1573 11.848 21.2893 12.3603C21.3245 12.4825 21.4077 12.5857 21.5201 12.6467ZM28.5675 15.2569C28.09 14.1263 26.7953 12.9207 25.4574 12.8624L25.4577 12.8622C24.9193 12.8611 24.3849 12.9525 23.8778 13.1319L23.6362 13.2026C23.4739 13.2481 23.3208 13.2953 23.171 13.3422C22.6201 13.5176 22.2218 13.6473 21.7258 13.5047C21.4357 13.4138 21.1573 13.2894 20.8965 13.1341C20.7586 13.0593 20.6149 12.9846 20.4648 12.913V12.9128C20.0518 12.7137 19.6012 12.6032 19.1423 12.5883L18.8852 12.5784H18.8761C18.5006 12.5719 18.1269 12.6258 17.7688 12.7374C18.0224 13.1377 18.052 13.6389 17.8472 14.0658C17.5877 14.5859 17.2352 15.0548 16.8068 15.4499C16.9282 15.4877 17.027 15.5228 17.0926 15.5484L17.1119 15.5557L17.1306 15.5637V15.5639C17.4806 15.7124 17.7549 15.9957 17.89 16.3491C18.025 16.7024 18.0094 17.095 17.8465 17.4368C17.587 17.9569 17.2346 18.4258 16.8061 18.821C16.9275 18.8587 17.0263 18.8938 17.0919 18.9194L17.1112 18.9268L17.1299 18.9347V18.9349C17.4802 19.0832 17.7542 19.3667 17.8893 19.7201C18.0246 20.0735 18.0087 20.466 17.8459 20.8076C17.493 21.5203 16.9618 22.1312 16.3034 22.5822C16.6893 23.3559 17.1586 24.0859 17.7028 24.7597C18.0913 25.234 18.627 25.7927 19.3586 25.9196C19.4656 25.9387 19.5744 25.9484 19.6832 25.9486C20.1386 25.9239 20.5849 25.8114 20.997 25.6177C21.3113 25.4632 21.6539 25.3736 22.0042 25.3546C22.2463 25.379 22.4837 25.4371 22.7093 25.5276C22.9858 25.6349 23.2748 25.7075 23.5695 25.7437C24.3993 25.828 25.2505 25.4414 26.1102 24.6009H26.11C27.6342 23.0336 28.608 21.0202 28.8868 18.8604C29.1111 17.6527 29.0008 16.4073 28.5676 15.2571L28.5675 15.2569ZM13.143 27.1107C12.9145 26.9282 12.2355 26.2956 12.105 25.7748C11.9838 24.9843 11.9471 24.1836 11.9951 23.3855V12.5433C11.9986 12.4086 11.9469 12.278 11.852 12.1815C11.7571 12.085 11.6268 12.0305 11.4908 12.0305C11.3549 12.0305 11.2248 12.085 11.1299 12.1815C11.035 12.278 10.9833 12.4086 10.9868 12.5433V23.3618C10.984 23.4357 10.9069 25.1508 11.1262 26.0161C11.3634 26.955 12.3955 27.7993 12.5141 27.8905C12.731 28.0628 13.0476 28.0279 13.2214 27.8127C13.3951 27.5974 13.3599 27.2833 13.143 27.1109L13.143 27.1107ZM8.57703 19.7629C7.81481 19.522 6.99177 19.5504 6.24823 19.8435C6.14703 19.8857 6.06755 19.9669 6.02846 20.0686C5.98742 20.1703 5.9909 20.2845 6.03802 20.3836C6.38417 21.0996 6.97247 21.6726 7.70033 22.0023C8.01477 22.1201 8.34854 22.1787 8.68448 22.1753C9.14376 22.1718 9.59847 22.0861 10.0269 21.9217C10.1281 21.879 10.208 21.7978 10.2489 21.6965C10.2875 21.5944 10.2842 21.481 10.2395 21.3815C9.89033 20.6677 9.30295 20.0958 8.57703 19.7629ZM16.9575 20.0686C16.9182 19.9669 16.839 19.8857 16.7378 19.8435C15.9942 19.5504 15.1714 19.5218 14.4092 19.7629C13.6832 20.0958 13.0958 20.6676 12.7467 21.3815C12.7002 21.4808 12.6967 21.5946 12.7369 21.6965C12.7768 21.7986 12.8574 21.8799 12.9593 21.9217C13.3877 22.0861 13.8424 22.1718 14.3017 22.1753C14.6376 22.1787 14.9714 22.1201 15.2858 22.0023C16.0138 21.6726 16.602 21.0997 16.9479 20.3837C16.995 20.2845 16.9985 20.1703 16.9575 20.0686L16.9575 20.0686ZM8.57703 16.3927C7.81481 16.1516 6.99177 16.1801 6.24823 16.4733C6.14703 16.5155 6.06755 16.597 6.02846 16.6985C5.98742 16.8004 5.9909 16.9144 6.03802 17.0137C6.38417 17.7297 6.97247 18.3024 7.70033 18.6323C8.01477 18.7497 8.34854 18.8086 8.68448 18.8051C9.14376 18.8019 9.59847 18.7159 10.0269 18.5515C10.1281 18.5088 10.208 18.4278 10.2489 18.3263C10.2875 18.2242 10.2842 18.1111 10.2395 18.0113C9.89033 17.2973 9.30312 16.725 8.57698 16.3919L8.57703 16.3927ZM15.6078 18.4787C15.6025 18.4815 15.5963 18.4836 15.591 18.4866C15.5963 18.4849 15.6025 18.4815 15.6078 18.4787ZM16.948 17.0126C16.9952 16.9135 16.9986 16.7993 16.9576 16.6976C16.9183 16.5959 16.839 16.5147 16.7378 16.4724C15.9943 16.1792 15.1715 16.1507 14.4092 16.3919C13.6833 16.7248 13.0959 17.2966 12.7467 18.0105C12.7002 18.1098 12.6968 18.2236 12.7369 18.3255C12.7769 18.4276 12.8575 18.5088 12.9593 18.5506C13.3877 18.715 13.8425 18.801 14.3017 18.8043C14.6377 18.8075 14.9715 18.7489 15.2859 18.6312C15.3908 18.5901 15.4926 18.5418 15.5908 18.4867C16.1762 18.1344 16.6473 17.6228 16.948 17.0126ZM11.4707 10.4927C11.5806 10.4919 11.6857 10.4473 11.7628 10.3693C12.0711 10.0318 12.3157 9.64181 12.4844 9.21801C12.6086 8.90817 12.674 8.57827 12.677 8.24494C12.6299 7.45224 12.3041 6.70091 11.756 6.12217C11.6794 6.04395 11.5743 6 11.4642 6C11.3543 6 11.249 6.04396 11.1723 6.12217C10.6288 6.70438 10.3052 7.45527 10.2566 8.24731C10.3072 9.03935 10.6327 9.78942 11.1777 10.3701C11.2552 10.4476 11.3606 10.4916 11.4707 10.4927L11.4707 10.4927ZM8.5782 13.0208C7.81598 12.7797 6.99294 12.8081 6.24917 13.1014C6.14819 13.1436 6.06871 13.2249 6.02941 13.3266C5.98858 13.4285 5.99206 13.5425 6.03918 13.6416C6.38511 14.3575 6.97363 14.9305 7.7015 15.2602C8.01594 15.3778 8.3497 15.4364 8.68564 15.4332C9.14493 15.43 9.59963 15.344 10.0279 15.1796C10.1293 15.1369 10.2092 15.0559 10.2501 14.9544C10.2887 14.8523 10.2855 14.7392 10.2407 14.6394C9.8911 13.9254 9.30328 13.3535 8.57685 13.0208L8.5782 13.0208ZM9.2796 9.76467C8.58798 9.36497 7.77795 9.21544 6.98771 9.34148C6.87957 9.36152 6.78423 9.42401 6.72343 9.51493C6.66241 9.60565 6.64113 9.71705 6.66415 9.8237C6.84504 10.5972 7.2939 11.2833 7.93232 11.7621C8.21353 11.9446 8.52665 12.0736 8.85564 12.1426C9.3045 12.2383 9.76724 12.2525 10.2213 12.1846C10.3301 12.1659 10.4263 12.1038 10.4878 12.0129C10.5494 11.922 10.5709 11.8101 10.5473 11.703C10.3629 10.931 9.91491 10.2463 9.27949 9.76466L9.2796 9.76467ZM12.5643 12.0126C12.6264 12.1027 12.7222 12.1648 12.8306 12.1846C13.2846 12.2525 13.7474 12.2382 14.1962 12.1426C14.525 12.0734 14.8379 11.9443 15.1189 11.7616C15.7574 11.2829 16.206 10.597 16.3869 9.82348C16.41 9.71682 16.3887 9.60542 16.3277 9.51471C16.2669 9.424 16.1715 9.36151 16.0636 9.34147C15.2742 9.21607 14.4653 9.36561 13.7743 9.76465C13.1387 10.2462 12.6907 10.931 12.5062 11.703C12.4838 11.8099 12.5046 11.9211 12.5643 12.0126ZM15.6078 15.1076C15.6025 15.1104 15.5963 15.1126 15.591 15.1156L15.6078 15.1076ZM14.4092 13.0208C13.6833 13.3537 13.0959 13.9255 12.7467 14.6394C12.7002 14.7387 12.6968 14.8525 12.7369 14.9546C12.7769 15.0566 12.8575 15.1378 12.9593 15.1796C13.3878 15.344 13.8425 15.43 14.3017 15.4332C14.6377 15.4364 14.9715 15.3778 15.2859 15.2602C15.3908 15.2192 15.4924 15.171 15.5906 15.1156C16.1758 14.7635 16.6468 14.2518 16.9476 13.6416C16.9949 13.5424 16.9984 13.4283 16.9573 13.3266C16.918 13.2248 16.8386 13.1436 16.7374 13.1014C15.994 12.8084 15.1713 12.7797 14.4092 13.0208Z" fill="#E5E5E5"/>
</svg>
