<svg width="35" height="35" viewBox="0 0 35 35" fill="none" xmlns="http://www.w3.org/2000/svg">
<rect x="0.5" y="0.5" width="34" height="34" rx="9.5" fill="#292F85" stroke="#E5E5E5"/>
<path fill-rule="evenodd" clip-rule="evenodd" d="M22.3599 19.3446C22.36 19.3446 22.36 19.3446 22.36 19.3445V19.3021C22.36 19.2957 22.3594 19.2892 22.358 19.283C22.2743 18.8982 21.8102 18.6688 21.4487 18.8239C21.1363 18.9801 20.8238 19.0843 20.4854 19.1363C20.225 19.1884 19.9648 19.2144 19.7043 19.2144C19.0534 19.2144 18.4285 19.0582 17.8557 18.7978C17.6474 18.6937 17.4131 18.6937 17.2048 18.7978C16.6321 19.0842 16.0071 19.2144 15.3563 19.2144C15.0958 19.2144 14.8356 19.1884 14.5752 19.1363C14.2366 19.0842 13.9243 18.954 13.6119 18.8239C13.2502 18.643 12.8117 18.8725 12.703 19.2575C12.7014 19.2634 12.7006 19.2712 12.7005 19.2773C12.6998 19.3107 12.6694 19.342 12.663 19.3747C12.4313 20.5512 12.9748 21.6447 13.8461 22.2085C14.7053 22.7813 15.2781 23.6926 15.2781 24.7339V27.5978C15.2781 28.8344 16.2806 29.8368 17.5172 29.8368C18.7538 29.8368 19.7562 28.8344 19.7563 27.5978L19.7564 24.786C19.7564 23.7447 20.3291 22.8334 21.1883 22.2606C22.0735 21.6618 22.5943 20.5685 22.3599 19.3448C22.3599 19.3447 22.3599 19.3447 22.3599 19.3446Z" fill="#E5E5E5"/>
<path fill-rule="evenodd" clip-rule="evenodd" d="M14.7862 17.7823C14.7862 17.7824 14.7862 17.7824 14.7863 17.7824C15.6454 17.9386 16.4525 17.7043 17.0512 17.2096C17.3117 17.0013 17.65 17.0013 17.9104 17.2096C18.5092 17.7043 19.3162 17.9386 20.1754 17.7824C21.2429 17.5741 22.1021 16.7411 22.3363 15.6995C22.5968 14.5018 22.0499 13.3824 21.1648 12.8096C20.3056 12.2368 19.7328 11.3255 19.7328 10.2842V7.3943C19.7328 6.15772 18.7304 5.15527 17.4938 5.15527C16.2572 5.15527 15.2548 6.15772 15.2548 7.3943V10.2582C15.2548 11.2995 14.682 12.2108 13.8228 12.7836C12.9114 13.3823 12.3908 14.4758 12.6512 15.6735C12.8595 16.7408 13.7447 17.574 14.7862 17.7823C14.7862 17.7823 14.7862 17.7823 14.7862 17.7823Z" fill="#E5E5E5"/>
</svg>
