<svg width="35" height="35" viewBox="0 0 35 35" fill="none" xmlns="http://www.w3.org/2000/svg">
<rect x="0.5" y="0.5" width="34" height="34" rx="9.5" fill="#292F85" stroke="#E5E5E5"/>
<path d="M23.3289 13.2842H22.4276C21.9436 13.2842 21.552 13.6775 21.552 14.1635C21.552 15.6238 20.5681 16.8456 19.2354 17.2309V13.9275H19.3415C19.8255 13.9275 20.2171 13.5343 20.2171 13.0482C20.2171 12.5622 19.8255 12.1689 19.3415 12.1689H17.378C16.894 12.1689 16.5024 12.5622 16.5024 13.0482C16.5024 13.5343 16.894 13.9275 17.378 13.9275H17.4841V17.2309C16.1514 16.8456 15.1676 15.6238 15.1676 14.1635C15.1676 13.6775 14.7759 13.2842 14.2919 13.2842H13.3904C12.9064 13.2842 12.5147 13.6775 12.5147 14.1635C12.5147 14.6496 12.9064 15.0428 13.3904 15.0428L13.494 15.0427C13.8577 17.0763 15.4591 18.683 17.4842 19.0481V20.9314H17.3781C16.894 20.9314 16.5024 21.3247 16.5024 21.8107C16.5024 22.2968 16.894 22.69 17.3781 22.69H19.3415C19.8255 22.69 20.2172 22.2968 20.2172 21.8107C20.2172 21.3247 19.8256 20.9314 19.3415 20.9314H19.2354V19.0481C21.2604 18.683 22.8619 17.0763 23.2256 15.0427H23.3291C23.8132 15.0427 24.2048 14.6494 24.2048 14.1634C24.2047 13.6775 23.813 13.2842 23.329 13.2842L23.3289 13.2842Z" fill="#E5E5E5"/>
<path d="M27.8619 17.3219C30.0378 11.074 24.864 5.73926 18.2161 5.73926C12.8145 5.73926 8.09745 10.422 8.89072 16.1089L8.93394 16.3925C8.93876 16.4243 8.9368 16.453 8.92822 16.48L6.82307 19.3179C6.6384 19.566 6.58161 19.8873 6.66912 20.1834C6.75663 20.4806 6.97881 20.7191 7.26921 20.8267L9.00983 21.4777V23.6445C9.00983 25.0967 10.1918 26.2785 11.6449 26.2785H13.1807V27.1545C13.1807 28.3192 14.128 29.2664 15.2926 29.2664H23.5682C24.1597 29.2664 24.7269 29.0164 25.1261 28.5808C25.5253 28.1441 25.7233 27.5565 25.6714 26.9671L25.4463 24.4398C25.202 21.6865 26.5653 21.0517 27.8622 17.3214L27.8619 17.3219ZM23.4843 24.6154L23.7093 27.1427C23.7132 27.1841 23.7007 27.2206 23.6727 27.2513C23.6448 27.282 23.6093 27.2974 23.5679 27.2974H15.2923C15.2133 27.2974 15.1499 27.234 15.1499 27.155V25.2942C15.1499 24.7498 14.7095 24.3094 14.1651 24.3094L11.6447 24.3096C11.2774 24.3096 10.9793 24.0115 10.9793 23.645V21.3686C10.9793 20.6964 10.6119 20.0818 10.0214 19.7635C9.98198 19.7414 9.94072 19.7232 9.89839 19.7078L9.18381 19.4405L10.561 17.5844C10.5851 17.5527 10.6071 17.5191 10.6264 17.4844C10.8687 17.0585 10.9571 16.5554 10.8764 16.0717L10.8409 15.837C10.239 11.5219 13.8924 7.70869 18.2162 7.70869C23.4371 7.70869 27.7404 11.6818 26.0021 16.6747C24.871 19.9277 23.1852 21.2564 23.4842 24.6156L23.4843 24.6154Z" fill="#E5E5E5"/>
</svg>
