<svg {{ $attributes }} viewBox="0 0 77 82" xmlns="http://www.w3.org/2000/svg">
    <path d="M76.1565 16.002V14.5122C76.1565 13.9795 75.7258 13.5488 75.1944 13.5451V5.96607C75.1944 2.67324 72.5081 0 69.2153 0H31.8303C28.5375 0 25.8642 2.67324 25.8642 5.96607V10.9768C25.3297 10.9768 24.8959 11.4107 24.8959 11.9452V15.0179C24.8959 15.5525 25.3297 15.9863 25.8642 15.9863V62.1908H29.3765C29.6474 62.1908 29.8675 61.9714 29.8675 61.6998V52.6223C29.8675 50.5949 30.8228 48.7869 32.3213 47.6377V8.56133H68.7373V72.16L32.3213 72.1594V67.2654C31.4431 67.7303 30.4361 68.0013 29.3771 68.0013H25.8648L25.8642 76.0209C25.8642 79.3137 28.5375 82 31.8303 82H69.2153C72.5081 82 75.1944 79.3137 75.1944 76.0209V23.0493C75.7258 23.0456 76.1565 22.6142 76.1565 22.0822V20.5918C76.1565 20.0591 75.7258 19.6284 75.1944 19.6247V16.9689C75.7258 16.9646 76.1565 16.5332 76.1565 16.0012V16.002ZM55.2953 5.2296H46.0364C45.5069 5.2296 45.0681 4.7908 45.0681 4.26126C45.0681 3.73172 45.5069 3.29292 46.0364 3.29292H55.2953C55.8249 3.29292 56.2637 3.73172 56.2637 4.26126C56.2637 4.7908 55.8249 5.2296 55.2953 5.2296ZM50.5301 79.0942C49.4194 79.0942 48.5157 78.1905 48.5157 77.0798C48.5157 75.9692 49.4194 75.0655 50.5301 75.0655C51.6408 75.0655 52.5444 75.9692 52.5444 77.0798C52.5444 78.1899 51.6407 79.0942 50.5301 79.0942Z" />
    <path d="M58.7815 30.9792V20.752C58.7815 19.241 57.5415 18.0017 56.0312 18.0017H53.862C53.7843 18.0017 53.7073 18.0148 53.6296 18.0403C53.307 17.3429 52.5835 16.865 51.7699 16.865C50.6076 16.865 49.6648 17.8078 49.6648 18.97C49.6648 20.1323 50.6077 21.062 51.7699 21.062C52.5835 21.062 53.2939 20.5971 53.6296 19.8997C53.7073 19.9259 53.7843 19.9383 53.862 19.9383H56.0312C56.483 19.9383 56.8448 20.3 56.8448 20.7519V30.9791C56.8448 32.477 56.4706 33.9749 55.7857 35.2925C55.7727 35.318 55.7596 35.3441 55.7596 35.3702C55.0107 35.2409 54.2101 35.5125 53.6806 36.1322C53.5383 36.2869 53.3966 36.4548 53.2543 36.5971C51.627 38.2113 49.3802 39.0509 47.0818 38.8955C45.0159 38.7531 43.1047 37.7717 41.7099 36.1322C41.1804 35.4994 40.3798 35.2409 39.6179 35.3702C39.6179 35.3441 39.6048 35.3186 39.5924 35.2925C38.8304 33.8592 38.4301 32.2706 38.4301 30.6695V20.7517C38.4301 20.3129 38.8049 19.9381 39.2568 19.9381H41.3874C41.4651 19.9381 41.5422 19.9251 41.6068 19.8996C41.9425 20.61 42.679 21.1004 43.5181 21.1004C44.6934 21.1004 45.6488 20.1451 45.6488 18.9697C45.6488 17.782 44.6935 16.826 43.5181 16.826C42.679 16.826 41.9425 17.317 41.6068 18.0398C41.5422 18.0137 41.4651 18.0007 41.3874 18.0007H39.2568C37.7328 18.0007 36.4935 19.24 36.4935 20.7509V30.6693C36.4935 32.5806 36.9714 34.4917 37.8882 36.1959C37.9398 36.2991 38.0044 36.3899 38.0945 36.4545C37.6035 37.255 37.6682 38.2755 38.3009 39.0245C40.2122 41.2713 42.756 42.7437 45.5585 43.2211H45.4938V45.9328C45.4938 46.811 46.0103 47.5855 46.7723 47.9217C46.7462 47.9863 46.7338 48.064 46.7338 48.1411V61.7005C46.7338 63.0436 45.6362 64.1282 44.293 64.1282H43.0015C41.6453 64.1282 40.5607 63.0436 40.5607 61.7005V52.6217C40.5607 50.207 38.5979 48.2442 36.1832 48.2442C33.7685 48.2442 31.8057 50.207 31.8057 52.6217V61.6998C31.8057 63.043 30.7211 64.1276 29.378 64.1276H10.4341C9.09097 64.1276 7.99331 63.043 7.99331 61.6998V46.5525C11.4155 46.0876 14.0626 43.1564 14.0626 39.6051C14.0626 35.718 10.9114 32.5675 7.02512 32.5675C3.15106 32.5675 0 35.7188 0 39.6051C0 43.1564 2.64715 46.0876 6.05612 46.5525V61.6998C6.05612 64.1021 8.01893 66.0649 10.4336 66.0649H29.3775C31.7798 66.0649 33.7426 64.1021 33.7426 61.6998V52.6217C33.7426 51.2786 34.8402 50.1809 36.1834 50.1809C37.5265 50.1809 38.6241 51.2785 38.6241 52.6217V61.6998C38.6241 64.1021 40.5869 66.0649 43.0016 66.0649H44.2932C46.7079 66.0649 48.6707 64.1021 48.6707 61.6998V48.1405C48.6707 48.0628 48.6576 47.9857 48.6321 47.9211C48.8646 47.8179 49.0709 47.6756 49.2518 47.4947C49.6521 47.0944 49.8976 46.5394 49.8976 45.9322V43.1819C52.3514 42.7301 54.6237 41.5547 56.4186 39.7597C56.6511 39.5273 56.8705 39.2818 57.0774 39.0363C57.7102 38.2873 57.7748 37.2413 57.2968 36.4408C57.3745 36.3762 57.4392 36.2861 57.4908 36.1953C58.3429 34.5948 58.7817 32.7999 58.7817 30.9788L58.7815 30.9792ZM7.03821 42.0724C5.65654 42.0724 4.54587 40.9617 4.54587 39.5931C4.54587 38.2245 5.65656 37.1138 7.03821 37.1138C8.39438 37.1138 9.51749 38.2245 9.51749 39.5931C9.51749 40.9617 8.39376 42.0724 7.03821 42.0724Z"/>
</svg>
